<?xml version="1.0" encoding="UTF-8" standalone="no"?>
<!DOCTYPE svg PUBLIC "-//W3C//DTD SVG 1.1//EN"
 "http://www.w3.org/Graphics/SVG/1.1/DTD/svg11.dtd">
<!-- Generated by graphviz version 2.47.0 (20210316.0004)
 -->
<!-- Title: dependencies Pages: 1 -->
<svg width="504pt" height="284pt"
 viewBox="0.00 0.00 504.00 284.00" xmlns="http://www.w3.org/2000/svg" xmlns:xlink="http://www.w3.org/1999/xlink">
<g id="graph0" class="graph" transform="scale(1 1) rotate(0) translate(4 280)">
<title>dependencies</title>
<polygon fill="white" stroke="transparent" points="-4,4 -4,-280 500,-280 500,4 -4,4"/>
<text text-anchor="start" x="227.01" y="-42.4" font-family="Times-12" font-weight="bold" font-size="14.00">Legend</text>
<polygon fill="#ffffb3" stroke="transparent" points="14,-10 14,-30 34,-30 34,-10 14,-10"/>
<text text-anchor="start" x="37.63" y="-15.4" font-family="Times-12" font-size="14.00"> &#160;Declarations</text>
<polygon fill="#8dd3c7" stroke="transparent" points="127,-10 127,-30 147,-30 147,-10 127,-10"/>
<text text-anchor="start" x="150.73" y="-15.4" font-family="Times-12" font-size="14.00"> &#160;Module</text>
<polygon fill="#80b1d3" stroke="transparent" points="213,-10 213,-30 233,-30 233,-10 213,-10"/>
<text text-anchor="start" x="236.78" y="-15.4" font-family="Times-12" font-size="14.00"> &#160;Bootstrap</text>
<polygon fill="#fdb462" stroke="transparent" points="310,-10 310,-30 330,-30 330,-10 310,-10"/>
<text text-anchor="start" x="333.67" y="-15.4" font-family="Times-12" font-size="14.00"> &#160;Providers</text>
<polygon fill="#fb8072" stroke="transparent" points="406,-10 406,-30 426,-30 426,-10 406,-10"/>
<text text-anchor="start" x="429.73" y="-15.4" font-family="Times-12" font-size="14.00"> &#160;Exports</text>
<g id="clust1" class="cluster">
<title>cluster_SharedModule</title>
<polygon fill="none" stroke="black" stroke-dasharray="1,5" points="30,-70 30,-268 466,-268 466,-70 30,-70"/>
</g>
<g id="clust7" class="cluster">
<title>cluster_SharedModule_exports</title>
<polygon fill="none" stroke="black" points="38,-208 38,-260 458,-260 458,-208 38,-208"/>
</g>
<g id="clust2" class="cluster">
<title>cluster_SharedModule_declarations</title>
<polygon fill="none" stroke="black" points="43,-78 43,-130 453,-130 453,-78 43,-78"/>
</g>
<!-- ChartsComponent -->
<g id="node1" class="node">
<title>ChartsComponent</title>
<polygon fill="#ffffb3" stroke="black" points="444.88,-122 327.12,-122 327.12,-86 444.88,-86 444.88,-122"/>
<text text-anchor="middle" x="386" y="-99.8" font-family="Times,serif" font-size="14.00">ChartsComponent</text>
</g>
<!-- SharedModule -->
<g id="node4" class="node">
<title>SharedModule</title>
<polygon fill="#8dd3c7" stroke="black" points="299.42,-187 296.42,-191 275.42,-191 272.42,-187 200.58,-187 200.58,-151 299.42,-151 299.42,-187"/>
<text text-anchor="middle" x="250" y="-164.8" font-family="Times,serif" font-size="14.00">SharedModule</text>
</g>
<!-- ChartsComponent&#45;&gt;SharedModule -->
<g id="edge1" class="edge">
<title>ChartsComponent&#45;&gt;SharedModule</title>
<path fill="none" stroke="black" d="M406.06,-122.02C406.06,-139.37 406.06,-163 406.06,-163 406.06,-163 309.38,-163 309.38,-163"/>
<polygon fill="black" stroke="black" points="309.38,-159.5 299.38,-163 309.38,-166.5 309.38,-159.5"/>
</g>
<!-- FooterComponent -->
<g id="node2" class="node">
<title>FooterComponent</title>
<polygon fill="#ffffb3" stroke="black" points="308.88,-122 191.12,-122 191.12,-86 308.88,-86 308.88,-122"/>
<text text-anchor="middle" x="250" y="-99.8" font-family="Times,serif" font-size="14.00">FooterComponent</text>
</g>
<!-- FooterComponent&#45;&gt;SharedModule -->
<g id="edge2" class="edge">
<title>FooterComponent&#45;&gt;SharedModule</title>
<path fill="none" stroke="black" d="M250,-122.11C250,-122.11 250,-140.99 250,-140.99"/>
<polygon fill="black" stroke="black" points="246.5,-140.99 250,-150.99 253.5,-140.99 246.5,-140.99"/>
</g>
<!-- HeaderComponent -->
<g id="node3" class="node">
<title>HeaderComponent</title>
<polygon fill="#ffffb3" stroke="black" points="172.74,-122 51.26,-122 51.26,-86 172.74,-86 172.74,-122"/>
<text text-anchor="middle" x="112" y="-99.8" font-family="Times,serif" font-size="14.00">HeaderComponent</text>
</g>
<!-- HeaderComponent&#45;&gt;SharedModule -->
<g id="edge3" class="edge">
<title>HeaderComponent&#45;&gt;SharedModule</title>
<path fill="none" stroke="black" d="M131.46,-122.02C131.46,-139.37 131.46,-163 131.46,-163 131.46,-163 190.76,-163 190.76,-163"/>
<polygon fill="black" stroke="black" points="190.76,-166.5 200.76,-163 190.76,-159.5 190.76,-166.5"/>
</g>
<!-- ChartsComponent  -->
<g id="node5" class="node">
<title>ChartsComponent </title>
<polygon fill="#fb8072" stroke="black" points="449.88,-252 328.12,-252 328.12,-216 449.88,-216 449.88,-252"/>
<text text-anchor="middle" x="389" y="-229.8" font-family="Times,serif" font-size="14.00">ChartsComponent </text>
</g>
<!-- SharedModule&#45;&gt;ChartsComponent  -->
<g id="edge4" class="edge">
<title>SharedModule&#45;&gt;ChartsComponent </title>
<path fill="none" stroke="black" stroke-dasharray="5,2" d="M299.36,-175C331.38,-175 367.19,-175 367.19,-175 367.19,-175 367.19,-205.98 367.19,-205.98"/>
<polygon fill="black" stroke="black" points="363.69,-205.98 367.19,-215.98 370.69,-205.98 363.69,-205.98"/>
</g>
<!-- FooterComponent  -->
<g id="node6" class="node">
<title>FooterComponent </title>
<polygon fill="#fb8072" stroke="black" points="310.88,-252 189.12,-252 189.12,-216 310.88,-216 310.88,-252"/>
<text text-anchor="middle" x="250" y="-229.8" font-family="Times,serif" font-size="14.00">FooterComponent </text>
</g>
<!-- SharedModule&#45;&gt;FooterComponent  -->
<g id="edge5" class="edge">
<title>SharedModule&#45;&gt;FooterComponent </title>
<path fill="none" stroke="black" stroke-dasharray="5,2" d="M250,-187.11C250,-187.11 250,-205.99 250,-205.99"/>
<polygon fill="black" stroke="black" points="246.5,-205.99 250,-215.99 253.5,-205.99 246.5,-205.99"/>
</g>
<!-- HeaderComponent  -->
<g id="node7" class="node">
<title>HeaderComponent </title>
<polygon fill="#fb8072" stroke="black" points="171.74,-252 46.26,-252 46.26,-216 171.74,-216 171.74,-252"/>
<text text-anchor="middle" x="109" y="-229.8" font-family="Times,serif" font-size="14.00">HeaderComponent </text>
</g>
<!-- SharedModule&#45;&gt;HeaderComponent  -->
<g id="edge6" class="edge">
<title>SharedModule&#45;&gt;HeaderComponent </title>
<path fill="none" stroke="black" stroke-dasharray="5,2" d="M200.65,-175C154.07,-175 91.29,-175 91.29,-175 91.29,-175 91.29,-205.98 91.29,-205.98"/>
<polygon fill="black" stroke="black" points="87.79,-205.98 91.29,-215.98 94.79,-205.98 87.79,-205.98"/>
</g>
</g>
</svg>
