<?xml version="1.0" encoding="UTF-8" standalone="no"?>
<!DOCTYPE svg PUBLIC "-//W3C//DTD SVG 1.1//EN"
 "http://www.w3.org/Graphics/SVG/1.1/DTD/svg11.dtd">
<!-- Generated by graphviz version 2.47.0 (20210316.0004)
 -->
<!-- Title: dependencies Pages: 1 -->
<svg width="1090pt" height="284pt"
 viewBox="0.00 0.00 1090.00 284.00" xmlns="http://www.w3.org/2000/svg" xmlns:xlink="http://www.w3.org/1999/xlink">
<g id="graph0" class="graph" transform="scale(1 1) rotate(0) translate(4 280)">
<title>dependencies</title>
<polygon fill="white" stroke="transparent" points="-4,4 -4,-280 1086,-280 1086,4 -4,4"/>
<text text-anchor="start" x="520.01" y="-42.4" font-family="Times-12" font-weight="bold" font-size="14.00">Legend</text>
<polygon fill="#ffffb3" stroke="transparent" points="307,-10 307,-30 327,-30 327,-10 307,-10"/>
<text text-anchor="start" x="330.63" y="-15.4" font-family="Times-12" font-size="14.00"> &#160;Declarations</text>
<polygon fill="#8dd3c7" stroke="transparent" points="420,-10 420,-30 440,-30 440,-10 420,-10"/>
<text text-anchor="start" x="443.73" y="-15.4" font-family="Times-12" font-size="14.00"> &#160;Module</text>
<polygon fill="#80b1d3" stroke="transparent" points="506,-10 506,-30 526,-30 526,-10 506,-10"/>
<text text-anchor="start" x="529.78" y="-15.4" font-family="Times-12" font-size="14.00"> &#160;Bootstrap</text>
<polygon fill="#fdb462" stroke="transparent" points="603,-10 603,-30 623,-30 623,-10 603,-10"/>
<text text-anchor="start" x="626.67" y="-15.4" font-family="Times-12" font-size="14.00"> &#160;Providers</text>
<polygon fill="#fb8072" stroke="transparent" points="699,-10 699,-30 719,-30 719,-10 699,-10"/>
<text text-anchor="start" x="722.73" y="-15.4" font-family="Times-12" font-size="14.00"> &#160;Exports</text>
<g id="clust1" class="cluster">
<title>cluster_AppModule</title>
<polygon fill="none" stroke="black" stroke-dasharray="1,5" points="8,-70 8,-268 1074,-268 1074,-70 8,-70"/>
</g>
<g id="clust8" class="cluster">
<title>cluster_AppModule_bootstrap</title>
<polygon fill="none" stroke="black" points="460,-208 460,-260 584,-260 584,-208 460,-208"/>
</g>
<g id="clust9" class="cluster">
<title>cluster_AppModule_providers</title>
<polygon fill="none" stroke="black" points="866,-78 866,-130 1066,-130 1066,-78 866,-78"/>
</g>
<g id="clust6" class="cluster">
<title>cluster_AppModule_imports</title>
<polygon fill="none" stroke="black" points="465,-78 465,-130 858,-130 858,-78 465,-78"/>
</g>
<g id="clust2" class="cluster">
<title>cluster_AppModule_declarations</title>
<polygon fill="none" stroke="black" points="16,-78 16,-130 457,-130 457,-78 16,-78"/>
</g>
<!-- AboutCandidateComponent -->
<g id="node1" class="node">
<title>AboutCandidateComponent</title>
<polygon fill="#ffffb3" stroke="black" points="448.59,-122 275.41,-122 275.41,-86 448.59,-86 448.59,-122"/>
<text text-anchor="middle" x="362" y="-99.8" font-family="Times,serif" font-size="14.00">AboutCandidateComponent</text>
</g>
<!-- AppModule -->
<g id="node4" class="node">
<title>AppModule</title>
<polygon fill="#8dd3c7" stroke="black" points="563.66,-187 560.66,-191 539.66,-191 536.66,-187 480.34,-187 480.34,-151 563.66,-151 563.66,-187"/>
<text text-anchor="middle" x="522" y="-164.8" font-family="Times,serif" font-size="14.00">AppModule</text>
</g>
<!-- AboutCandidateComponent&#45;&gt;AppModule -->
<g id="edge1" class="edge">
<title>AboutCandidateComponent&#45;&gt;AppModule</title>
<path fill="none" stroke="black" d="M362,-122.03C362,-138.4 362,-160 362,-160 362,-160 469.96,-160 469.96,-160"/>
<polygon fill="black" stroke="black" points="469.96,-163.5 479.96,-160 469.96,-156.5 469.96,-163.5"/>
</g>
<!-- AppComponent -->
<g id="node2" class="node">
<title>AppComponent</title>
<polygon fill="#ffffb3" stroke="black" points="257.94,-122 152.06,-122 152.06,-86 257.94,-86 257.94,-122"/>
<text text-anchor="middle" x="205" y="-99.8" font-family="Times,serif" font-size="14.00">AppComponent</text>
</g>
<!-- AppComponent&#45;&gt;AppModule -->
<g id="edge2" class="edge">
<title>AppComponent&#45;&gt;AppModule</title>
<path fill="none" stroke="black" d="M205,-122.11C205,-141.34 205,-169 205,-169 205,-169 470.23,-169 470.23,-169"/>
<polygon fill="black" stroke="black" points="470.23,-172.5 480.23,-169 470.23,-165.5 470.23,-172.5"/>
</g>
<!-- DocsComponent -->
<g id="node3" class="node">
<title>DocsComponent</title>
<polygon fill="#ffffb3" stroke="black" points="134.1,-122 23.9,-122 23.9,-86 134.1,-86 134.1,-122"/>
<text text-anchor="middle" x="79" y="-99.8" font-family="Times,serif" font-size="14.00">DocsComponent</text>
</g>
<!-- DocsComponent&#45;&gt;AppModule -->
<g id="edge3" class="edge">
<title>DocsComponent&#45;&gt;AppModule</title>
<path fill="none" stroke="black" d="M79,-122.29C79,-144.21 79,-178 79,-178 79,-178 470.32,-178 470.32,-178"/>
<polygon fill="black" stroke="black" points="470.32,-181.5 480.32,-178 470.32,-174.5 470.32,-181.5"/>
</g>
<!-- AppComponent  -->
<g id="node8" class="node">
<title>AppComponent </title>
<polygon fill="#80b1d3" stroke="black" points="576.44,-252 467.56,-252 467.56,-216 576.44,-216 576.44,-252"/>
<text text-anchor="middle" x="522" y="-229.8" font-family="Times,serif" font-size="14.00">AppComponent </text>
</g>
<!-- AppModule&#45;&gt;AppComponent  -->
<g id="edge7" class="edge">
<title>AppModule&#45;&gt;AppComponent </title>
<path fill="none" stroke="black" stroke-dasharray="1,5" d="M522,-187.11C522,-187.11 522,-205.99 522,-205.99"/>
<polygon fill="black" stroke="black" points="518.5,-205.99 522,-215.99 525.5,-205.99 518.5,-205.99"/>
</g>
<!-- ApiProxyModule -->
<g id="node5" class="node">
<title>ApiProxyModule</title>
<polygon fill="#8dd3c7" stroke="black" points="849.99,-122 846.99,-126 825.99,-126 822.99,-122 736.01,-122 736.01,-86 849.99,-86 849.99,-122"/>
<text text-anchor="middle" x="793" y="-99.8" font-family="Times,serif" font-size="14.00">ApiProxyModule</text>
</g>
<!-- ApiProxyModule&#45;&gt;AppModule -->
<g id="edge4" class="edge">
<title>ApiProxyModule&#45;&gt;AppModule</title>
<path fill="none" stroke="black" d="M793,-122.11C793,-141.34 793,-169 793,-169 793,-169 573.75,-169 573.75,-169"/>
<polygon fill="black" stroke="black" points="573.75,-165.5 563.75,-169 573.75,-172.5 573.75,-165.5"/>
</g>
<!-- AppRoutingModule -->
<g id="node6" class="node">
<title>AppRoutingModule</title>
<polygon fill="#8dd3c7" stroke="black" points="718.27,-122 715.27,-126 694.27,-126 691.27,-122 589.73,-122 589.73,-86 718.27,-86 718.27,-122"/>
<text text-anchor="middle" x="654" y="-99.8" font-family="Times,serif" font-size="14.00">AppRoutingModule</text>
</g>
<!-- AppRoutingModule&#45;&gt;AppModule -->
<g id="edge5" class="edge">
<title>AppRoutingModule&#45;&gt;AppModule</title>
<path fill="none" stroke="black" d="M654,-122.03C654,-138.4 654,-160 654,-160 654,-160 573.77,-160 573.77,-160"/>
<polygon fill="black" stroke="black" points="573.77,-156.5 563.77,-160 573.77,-163.5 573.77,-156.5"/>
</g>
<!-- SharedModule -->
<g id="node7" class="node">
<title>SharedModule</title>
<polygon fill="#8dd3c7" stroke="black" points="571.42,-122 568.42,-126 547.42,-126 544.42,-122 472.58,-122 472.58,-86 571.42,-86 571.42,-122"/>
<text text-anchor="middle" x="522" y="-99.8" font-family="Times,serif" font-size="14.00">SharedModule</text>
</g>
<!-- SharedModule&#45;&gt;AppModule -->
<g id="edge6" class="edge">
<title>SharedModule&#45;&gt;AppModule</title>
<path fill="none" stroke="black" d="M522,-122.11C522,-122.11 522,-140.99 522,-140.99"/>
<polygon fill="black" stroke="black" points="518.5,-140.99 522,-150.99 525.5,-140.99 518.5,-140.99"/>
</g>
<!-- Aq54HttpInterceptor -->
<g id="node9" class="node">
<title>Aq54HttpInterceptor</title>
<ellipse fill="#fdb462" stroke="black" cx="966" cy="-104" rx="92.04" ry="18"/>
<text text-anchor="middle" x="966" y="-99.8" font-family="Times,serif" font-size="14.00">Aq54HttpInterceptor</text>
</g>
<!-- Aq54HttpInterceptor&#45;&gt;AppModule -->
<g id="edge8" class="edge">
<title>Aq54HttpInterceptor&#45;&gt;AppModule</title>
<path fill="none" stroke="black" d="M966,-122.29C966,-144.21 966,-178 966,-178 966,-178 573.77,-178 573.77,-178"/>
<polygon fill="black" stroke="black" points="573.77,-174.5 563.77,-178 573.77,-181.5 573.77,-174.5"/>
</g>
</g>
</svg>
