<?xml version="1.0" encoding="UTF-8" standalone="no"?>
<!DOCTYPE svg PUBLIC "-//W3C//DTD SVG 1.1//EN"
 "http://www.w3.org/Graphics/SVG/1.1/DTD/svg11.dtd">
<!-- Generated by graphviz version 2.47.0 (20210316.0004)
 -->
<!-- Title: dependencies Pages: 1 -->
<svg width="962pt" height="284pt"
 viewBox="0.00 0.00 962.00 284.00" xmlns="http://www.w3.org/2000/svg" xmlns:xlink="http://www.w3.org/1999/xlink">
<g id="graph0" class="graph" transform="scale(1 1) rotate(0) translate(4 280)">
<title>dependencies</title>
<polygon fill="white" stroke="transparent" points="-4,4 -4,-280 958,-280 958,4 -4,4"/>
<text text-anchor="start" x="456.01" y="-42.4" font-family="Times-12" font-weight="bold" font-size="14.00">Legend</text>
<polygon fill="#ffffb3" stroke="transparent" points="243,-10 243,-30 263,-30 263,-10 243,-10"/>
<text text-anchor="start" x="266.63" y="-15.4" font-family="Times-12" font-size="14.00"> &#160;Declarations</text>
<polygon fill="#8dd3c7" stroke="transparent" points="356,-10 356,-30 376,-30 376,-10 356,-10"/>
<text text-anchor="start" x="379.73" y="-15.4" font-family="Times-12" font-size="14.00"> &#160;Module</text>
<polygon fill="#80b1d3" stroke="transparent" points="442,-10 442,-30 462,-30 462,-10 442,-10"/>
<text text-anchor="start" x="465.78" y="-15.4" font-family="Times-12" font-size="14.00"> &#160;Bootstrap</text>
<polygon fill="#fdb462" stroke="transparent" points="539,-10 539,-30 559,-30 559,-10 539,-10"/>
<text text-anchor="start" x="562.67" y="-15.4" font-family="Times-12" font-size="14.00"> &#160;Providers</text>
<polygon fill="#fb8072" stroke="transparent" points="635,-10 635,-30 655,-30 655,-10 635,-10"/>
<text text-anchor="start" x="658.73" y="-15.4" font-family="Times-12" font-size="14.00"> &#160;Exports</text>
<g id="clust1" class="cluster">
<title>cluster_AppModule</title>
<polygon fill="none" stroke="black" stroke-dasharray="1,5" points="8,-70 8,-268 946,-268 946,-70 8,-70"/>
</g>
<g id="clust8" class="cluster">
<title>cluster_AppModule_providers</title>
<polygon fill="none" stroke="black" points="738,-78 738,-130 938,-130 938,-78 738,-78"/>
</g>
<g id="clust7" class="cluster">
<title>cluster_AppModule_bootstrap</title>
<polygon fill="none" stroke="black" points="398,-208 398,-260 522,-260 522,-208 398,-208"/>
</g>
<g id="clust5" class="cluster">
<title>cluster_AppModule_imports</title>
<polygon fill="none" stroke="black" points="337,-78 337,-130 730,-130 730,-78 337,-78"/>
</g>
<g id="clust2" class="cluster">
<title>cluster_AppModule_declarations</title>
<polygon fill="none" stroke="black" points="16,-78 16,-130 329,-130 329,-78 16,-78"/>
</g>
<!-- AboutCandidateComponent -->
<g id="node1" class="node">
<title>AboutCandidateComponent</title>
<polygon fill="#ffffb3" stroke="black" points="320.59,-122 147.41,-122 147.41,-86 320.59,-86 320.59,-122"/>
<text text-anchor="middle" x="234" y="-99.8" font-family="Times,serif" font-size="14.00">AboutCandidateComponent</text>
</g>
<!-- AppModule -->
<g id="node3" class="node">
<title>AppModule</title>
<polygon fill="#8dd3c7" stroke="black" points="501.66,-187 498.66,-191 477.66,-191 474.66,-187 418.34,-187 418.34,-151 501.66,-151 501.66,-187"/>
<text text-anchor="middle" x="460" y="-164.8" font-family="Times,serif" font-size="14.00">AppModule</text>
</g>
<!-- AboutCandidateComponent&#45;&gt;AppModule -->
<g id="edge1" class="edge">
<title>AboutCandidateComponent&#45;&gt;AppModule</title>
<path fill="none" stroke="black" d="M234,-122.02C234,-139.37 234,-163 234,-163 234,-163 408.28,-163 408.28,-163"/>
<polygon fill="black" stroke="black" points="408.28,-166.5 418.28,-163 408.28,-159.5 408.28,-166.5"/>
</g>
<!-- AppComponent -->
<g id="node2" class="node">
<title>AppComponent</title>
<polygon fill="#ffffb3" stroke="black" points="129.94,-122 24.06,-122 24.06,-86 129.94,-86 129.94,-122"/>
<text text-anchor="middle" x="77" y="-99.8" font-family="Times,serif" font-size="14.00">AppComponent</text>
</g>
<!-- AppComponent&#45;&gt;AppModule -->
<g id="edge2" class="edge">
<title>AppComponent&#45;&gt;AppModule</title>
<path fill="none" stroke="black" d="M77,-122.28C77,-143.32 77,-175 77,-175 77,-175 408.28,-175 408.28,-175"/>
<polygon fill="black" stroke="black" points="408.28,-178.5 418.28,-175 408.28,-171.5 408.28,-178.5"/>
</g>
<!-- AppComponent  -->
<g id="node7" class="node">
<title>AppComponent </title>
<polygon fill="#80b1d3" stroke="black" points="514.44,-252 405.56,-252 405.56,-216 514.44,-216 514.44,-252"/>
<text text-anchor="middle" x="460" y="-229.8" font-family="Times,serif" font-size="14.00">AppComponent </text>
</g>
<!-- AppModule&#45;&gt;AppComponent  -->
<g id="edge6" class="edge">
<title>AppModule&#45;&gt;AppComponent </title>
<path fill="none" stroke="black" stroke-dasharray="1,5" d="M460,-187.11C460,-187.11 460,-205.99 460,-205.99"/>
<polygon fill="black" stroke="black" points="456.5,-205.99 460,-215.99 463.5,-205.99 456.5,-205.99"/>
</g>
<!-- ApiProxyModule -->
<g id="node4" class="node">
<title>ApiProxyModule</title>
<polygon fill="#8dd3c7" stroke="black" points="721.99,-122 718.99,-126 697.99,-126 694.99,-122 608.01,-122 608.01,-86 721.99,-86 721.99,-122"/>
<text text-anchor="middle" x="665" y="-99.8" font-family="Times,serif" font-size="14.00">ApiProxyModule</text>
</g>
<!-- ApiProxyModule&#45;&gt;AppModule -->
<g id="edge3" class="edge">
<title>ApiProxyModule&#45;&gt;AppModule</title>
<path fill="none" stroke="black" d="M665,-122.02C665,-139.37 665,-163 665,-163 665,-163 511.98,-163 511.98,-163"/>
<polygon fill="black" stroke="black" points="511.98,-159.5 501.98,-163 511.98,-166.5 511.98,-159.5"/>
</g>
<!-- AppRoutingModule -->
<g id="node5" class="node">
<title>AppRoutingModule</title>
<polygon fill="#8dd3c7" stroke="black" points="590.27,-122 587.27,-126 566.27,-126 563.27,-122 461.73,-122 461.73,-86 590.27,-86 590.27,-122"/>
<text text-anchor="middle" x="526" y="-99.8" font-family="Times,serif" font-size="14.00">AppRoutingModule</text>
</g>
<!-- AppRoutingModule&#45;&gt;AppModule -->
<g id="edge4" class="edge">
<title>AppRoutingModule&#45;&gt;AppModule</title>
<path fill="none" stroke="black" d="M481.72,-122.11C481.72,-122.11 481.72,-140.99 481.72,-140.99"/>
<polygon fill="black" stroke="black" points="478.22,-140.99 481.72,-150.99 485.22,-140.99 478.22,-140.99"/>
</g>
<!-- SharedModule -->
<g id="node6" class="node">
<title>SharedModule</title>
<polygon fill="#8dd3c7" stroke="black" points="443.42,-122 440.42,-126 419.42,-126 416.42,-122 344.58,-122 344.58,-86 443.42,-86 443.42,-122"/>
<text text-anchor="middle" x="394" y="-99.8" font-family="Times,serif" font-size="14.00">SharedModule</text>
</g>
<!-- SharedModule&#45;&gt;AppModule -->
<g id="edge5" class="edge">
<title>SharedModule&#45;&gt;AppModule</title>
<path fill="none" stroke="black" d="M430.69,-122.11C430.69,-122.11 430.69,-140.99 430.69,-140.99"/>
<polygon fill="black" stroke="black" points="427.19,-140.99 430.69,-150.99 434.19,-140.99 427.19,-140.99"/>
</g>
<!-- Aq54HttpInterceptor -->
<g id="node8" class="node">
<title>Aq54HttpInterceptor</title>
<ellipse fill="#fdb462" stroke="black" cx="838" cy="-104" rx="92.04" ry="18"/>
<text text-anchor="middle" x="838" y="-99.8" font-family="Times,serif" font-size="14.00">Aq54HttpInterceptor</text>
</g>
<!-- Aq54HttpInterceptor&#45;&gt;AppModule -->
<g id="edge7" class="edge">
<title>Aq54HttpInterceptor&#45;&gt;AppModule</title>
<path fill="none" stroke="black" d="M838,-122.28C838,-143.32 838,-175 838,-175 838,-175 511.9,-175 511.9,-175"/>
<polygon fill="black" stroke="black" points="511.9,-171.5 501.9,-175 511.9,-178.5 511.9,-171.5"/>
</g>
</g>
</svg>
