<?xml version="1.0" encoding="UTF-8" standalone="no"?>
<!DOCTYPE svg PUBLIC "-//W3C//DTD SVG 1.1//EN"
 "http://www.w3.org/Graphics/SVG/1.1/DTD/svg11.dtd">
<!-- Generated by graphviz version 2.47.0 (20210316.0004)
 -->
<!-- Title: dependencies Pages: 1 -->
<svg width="720pt" height="211pt"
 viewBox="0.00 0.00 720.00 211.00" xmlns="http://www.w3.org/2000/svg" xmlns:xlink="http://www.w3.org/1999/xlink">
<g id="graph0" class="graph" transform="scale(1 1) rotate(0) translate(4 207)">
<title>dependencies</title>
<polygon fill="white" stroke="transparent" points="-4,4 -4,-207 716,-207 716,4 -4,4"/>
<text text-anchor="start" x="335.01" y="-42.4" font-family="Times-12" font-weight="bold" font-size="14.00">Legend</text>
<polygon fill="#ffffb3" stroke="transparent" points="122,-10 122,-30 142,-30 142,-10 122,-10"/>
<text text-anchor="start" x="145.63" y="-15.4" font-family="Times-12" font-size="14.00"> &#160;Declarations</text>
<polygon fill="#8dd3c7" stroke="transparent" points="235,-10 235,-30 255,-30 255,-10 235,-10"/>
<text text-anchor="start" x="258.73" y="-15.4" font-family="Times-12" font-size="14.00"> &#160;Module</text>
<polygon fill="#80b1d3" stroke="transparent" points="321,-10 321,-30 341,-30 341,-10 321,-10"/>
<text text-anchor="start" x="344.78" y="-15.4" font-family="Times-12" font-size="14.00"> &#160;Bootstrap</text>
<polygon fill="#fdb462" stroke="transparent" points="418,-10 418,-30 438,-30 438,-10 418,-10"/>
<text text-anchor="start" x="441.67" y="-15.4" font-family="Times-12" font-size="14.00"> &#160;Providers</text>
<polygon fill="#fb8072" stroke="transparent" points="514,-10 514,-30 534,-30 534,-10 514,-10"/>
<text text-anchor="start" x="537.73" y="-15.4" font-family="Times-12" font-size="14.00"> &#160;Exports</text>
<g id="clust1" class="cluster">
<title>cluster_FeaturesModule</title>
<polygon fill="none" stroke="black" stroke-dasharray="1,5" points="8,-70 8,-195 704,-195 704,-70 8,-70"/>
</g>
<g id="clust2" class="cluster">
<title>cluster_FeaturesModule_declarations</title>
<polygon fill="none" stroke="black" points="308,-78 308,-130 696,-130 696,-78 308,-78"/>
</g>
<g id="clust5" class="cluster">
<title>cluster_FeaturesModule_imports</title>
<polygon fill="none" stroke="black" points="16,-78 16,-130 300,-130 300,-78 16,-78"/>
</g>
<!-- DiferredDataChartComponent -->
<g id="node1" class="node">
<title>DiferredDataChartComponent</title>
<polygon fill="#ffffb3" stroke="black" points="688.27,-122 501.73,-122 501.73,-86 688.27,-86 688.27,-122"/>
<text text-anchor="middle" x="595" y="-99.8" font-family="Times,serif" font-size="14.00">DiferredDataChartComponent</text>
</g>
<!-- FeaturesModule -->
<g id="node3" class="node">
<title>FeaturesModule</title>
<polygon fill="#8dd3c7" stroke="black" points="361.47,-187 358.47,-191 337.47,-191 334.47,-187 254.53,-187 254.53,-151 361.47,-151 361.47,-187"/>
<text text-anchor="middle" x="308" y="-164.8" font-family="Times,serif" font-size="14.00">FeaturesModule</text>
</g>
<!-- DiferredDataChartComponent&#45;&gt;FeaturesModule -->
<g id="edge1" class="edge">
<title>DiferredDataChartComponent&#45;&gt;FeaturesModule</title>
<path fill="none" stroke="black" d="M595,-122.11C595,-141.34 595,-169 595,-169 595,-169 371.65,-169 371.65,-169"/>
<polygon fill="black" stroke="black" points="371.65,-165.5 361.65,-169 371.65,-172.5 371.65,-165.5"/>
</g>
<!-- RealTimeChartComponent -->
<g id="node2" class="node">
<title>RealTimeChartComponent</title>
<polygon fill="#ffffb3" stroke="black" points="483.64,-122 316.36,-122 316.36,-86 483.64,-86 483.64,-122"/>
<text text-anchor="middle" x="400" y="-99.8" font-family="Times,serif" font-size="14.00">RealTimeChartComponent</text>
</g>
<!-- RealTimeChartComponent&#45;&gt;FeaturesModule -->
<g id="edge2" class="edge">
<title>RealTimeChartComponent&#45;&gt;FeaturesModule</title>
<path fill="none" stroke="black" d="M338.83,-122.11C338.83,-122.11 338.83,-140.99 338.83,-140.99"/>
<polygon fill="black" stroke="black" points="335.33,-140.99 338.83,-150.99 342.33,-140.99 335.33,-140.99"/>
</g>
<!-- FeaturesRoutingModule -->
<g id="node4" class="node">
<title>FeaturesRoutingModule</title>
<polygon fill="#8dd3c7" stroke="black" points="292.09,-122 289.09,-126 268.09,-126 265.09,-122 139.91,-122 139.91,-86 292.09,-86 292.09,-122"/>
<text text-anchor="middle" x="216" y="-99.8" font-family="Times,serif" font-size="14.00">FeaturesRoutingModule</text>
</g>
<!-- FeaturesRoutingModule&#45;&gt;FeaturesModule -->
<g id="edge3" class="edge">
<title>FeaturesRoutingModule&#45;&gt;FeaturesModule</title>
<path fill="none" stroke="black" d="M273.28,-122.11C273.28,-122.11 273.28,-140.99 273.28,-140.99"/>
<polygon fill="black" stroke="black" points="269.78,-140.99 273.28,-150.99 276.78,-140.99 269.78,-140.99"/>
</g>
<!-- SharedModule -->
<g id="node5" class="node">
<title>SharedModule</title>
<polygon fill="#8dd3c7" stroke="black" points="122.42,-122 119.42,-126 98.42,-126 95.42,-122 23.58,-122 23.58,-86 122.42,-86 122.42,-122"/>
<text text-anchor="middle" x="73" y="-99.8" font-family="Times,serif" font-size="14.00">SharedModule</text>
</g>
<!-- SharedModule&#45;&gt;FeaturesModule -->
<g id="edge4" class="edge">
<title>SharedModule&#45;&gt;FeaturesModule</title>
<path fill="none" stroke="black" d="M73,-122.11C73,-141.34 73,-169 73,-169 73,-169 244.38,-169 244.38,-169"/>
<polygon fill="black" stroke="black" points="244.38,-172.5 254.38,-169 244.38,-165.5 244.38,-172.5"/>
</g>
</g>
</svg>
