<?xml version="1.0" encoding="UTF-8" standalone="no"?>
<!DOCTYPE svg PUBLIC "-//W3C//DTD SVG 1.1//EN"
 "http://www.w3.org/Graphics/SVG/1.1/DTD/svg11.dtd">
<!-- Generated by graphviz version 2.47.0 (20210316.0004)
 -->
<!-- Title: dependencies Pages: 1 -->
<svg width="720pt" height="211pt"
 viewBox="0.00 0.00 720.00 211.00" xmlns="http://www.w3.org/2000/svg" xmlns:xlink="http://www.w3.org/1999/xlink">
<g id="graph0" class="graph" transform="scale(1 1) rotate(0) translate(4 207)">
<title>dependencies</title>
<polygon fill="white" stroke="transparent" points="-4,4 -4,-207 716,-207 716,4 -4,4"/>
<text text-anchor="start" x="335.01" y="-42.4" font-family="Times-12" font-weight="bold" font-size="14.00">Legend</text>
<polygon fill="#ffffb3" stroke="transparent" points="122,-10 122,-30 142,-30 142,-10 122,-10"/>
<text text-anchor="start" x="145.63" y="-15.4" font-family="Times-12" font-size="14.00"> &#160;Declarations</text>
<polygon fill="#8dd3c7" stroke="transparent" points="235,-10 235,-30 255,-30 255,-10 235,-10"/>
<text text-anchor="start" x="258.73" y="-15.4" font-family="Times-12" font-size="14.00"> &#160;Module</text>
<polygon fill="#80b1d3" stroke="transparent" points="321,-10 321,-30 341,-30 341,-10 321,-10"/>
<text text-anchor="start" x="344.78" y="-15.4" font-family="Times-12" font-size="14.00"> &#160;Bootstrap</text>
<polygon fill="#fdb462" stroke="transparent" points="418,-10 418,-30 438,-30 438,-10 418,-10"/>
<text text-anchor="start" x="441.67" y="-15.4" font-family="Times-12" font-size="14.00"> &#160;Providers</text>
<polygon fill="#fb8072" stroke="transparent" points="514,-10 514,-30 534,-30 534,-10 514,-10"/>
<text text-anchor="start" x="537.73" y="-15.4" font-family="Times-12" font-size="14.00"> &#160;Exports</text>
<g id="clust1" class="cluster">
<title>cluster_FeaturesModule</title>
<polygon fill="none" stroke="black" stroke-dasharray="1,5" points="8,-70 8,-195 704,-195 704,-70 8,-70"/>
</g>
<g id="clust5" class="cluster">
<title>cluster_FeaturesModule_imports</title>
<polygon fill="none" stroke="black" points="412,-78 412,-130 696,-130 696,-78 412,-78"/>
</g>
<g id="clust2" class="cluster">
<title>cluster_FeaturesModule_declarations</title>
<polygon fill="none" stroke="black" points="16,-78 16,-130 404,-130 404,-78 16,-78"/>
</g>
<!-- DiferredDataChartComponent -->
<g id="node1" class="node">
<title>DiferredDataChartComponent</title>
<polygon fill="#ffffb3" stroke="black" points="396.27,-122 209.73,-122 209.73,-86 396.27,-86 396.27,-122"/>
<text text-anchor="middle" x="303" y="-99.8" font-family="Times,serif" font-size="14.00">DiferredDataChartComponent</text>
</g>
<!-- FeaturesModule -->
<g id="node3" class="node">
<title>FeaturesModule</title>
<polygon fill="#8dd3c7" stroke="black" points="439.47,-187 436.47,-191 415.47,-191 412.47,-187 332.53,-187 332.53,-151 439.47,-151 439.47,-187"/>
<text text-anchor="middle" x="386" y="-164.8" font-family="Times,serif" font-size="14.00">FeaturesModule</text>
</g>
<!-- DiferredDataChartComponent&#45;&gt;FeaturesModule -->
<g id="edge1" class="edge">
<title>DiferredDataChartComponent&#45;&gt;FeaturesModule</title>
<path fill="none" stroke="black" d="M364.32,-122.11C364.32,-122.11 364.32,-140.99 364.32,-140.99"/>
<polygon fill="black" stroke="black" points="360.82,-140.99 364.32,-150.99 367.82,-140.99 360.82,-140.99"/>
</g>
<!-- RealTimeChartComponent -->
<g id="node2" class="node">
<title>RealTimeChartComponent</title>
<polygon fill="#ffffb3" stroke="black" points="191.64,-122 24.36,-122 24.36,-86 191.64,-86 191.64,-122"/>
<text text-anchor="middle" x="108" y="-99.8" font-family="Times,serif" font-size="14.00">RealTimeChartComponent</text>
</g>
<!-- RealTimeChartComponent&#45;&gt;FeaturesModule -->
<g id="edge2" class="edge">
<title>RealTimeChartComponent&#45;&gt;FeaturesModule</title>
<path fill="none" stroke="black" d="M108,-122.11C108,-141.34 108,-169 108,-169 108,-169 322.4,-169 322.4,-169"/>
<polygon fill="black" stroke="black" points="322.4,-172.5 332.4,-169 322.4,-165.5 322.4,-172.5"/>
</g>
<!-- FeaturesRoutingModule -->
<g id="node4" class="node">
<title>FeaturesRoutingModule</title>
<polygon fill="#8dd3c7" stroke="black" points="688.09,-122 685.09,-126 664.09,-126 661.09,-122 535.91,-122 535.91,-86 688.09,-86 688.09,-122"/>
<text text-anchor="middle" x="612" y="-99.8" font-family="Times,serif" font-size="14.00">FeaturesRoutingModule</text>
</g>
<!-- FeaturesRoutingModule&#45;&gt;FeaturesModule -->
<g id="edge3" class="edge">
<title>FeaturesRoutingModule&#45;&gt;FeaturesModule</title>
<path fill="none" stroke="black" d="M612,-122.11C612,-141.34 612,-169 612,-169 612,-169 449.56,-169 449.56,-169"/>
<polygon fill="black" stroke="black" points="449.56,-165.5 439.56,-169 449.56,-172.5 449.56,-165.5"/>
</g>
<!-- SharedModule -->
<g id="node5" class="node">
<title>SharedModule</title>
<polygon fill="#8dd3c7" stroke="black" points="518.42,-122 515.42,-126 494.42,-126 491.42,-122 419.58,-122 419.58,-86 518.42,-86 518.42,-122"/>
<text text-anchor="middle" x="469" y="-99.8" font-family="Times,serif" font-size="14.00">SharedModule</text>
</g>
<!-- SharedModule&#45;&gt;FeaturesModule -->
<g id="edge4" class="edge">
<title>SharedModule&#45;&gt;FeaturesModule</title>
<path fill="none" stroke="black" d="M429.64,-122.11C429.64,-122.11 429.64,-140.99 429.64,-140.99"/>
<polygon fill="black" stroke="black" points="426.14,-140.99 429.64,-150.99 433.14,-140.99 426.14,-140.99"/>
</g>
</g>
</svg>
