<?xml version="1.0" encoding="UTF-8" standalone="no"?>
<!DOCTYPE svg PUBLIC "-//W3C//DTD SVG 1.1//EN"
 "http://www.w3.org/Graphics/SVG/1.1/DTD/svg11.dtd">
<!-- Generated by graphviz version 2.47.0 (20210316.0004)
 -->
<!-- Title: dependencies Pages: 1 -->
<svg width="2539pt" height="290pt"
 viewBox="0.00 0.00 2539.00 290.00" xmlns="http://www.w3.org/2000/svg" xmlns:xlink="http://www.w3.org/1999/xlink">
<g id="graph0" class="graph" transform="scale(1 1) rotate(0) translate(4 286)">
<title>dependencies</title>
<polygon fill="white" stroke="transparent" points="-4,4 -4,-286 2535,-286 2535,4 -4,4"/>
<text text-anchor="start" x="1244.51" y="-42.4" font-family="Times-12" font-weight="bold" font-size="14.00">Legend</text>
<polygon fill="#ffffb3" stroke="transparent" points="1031.5,-10 1031.5,-30 1051.5,-30 1051.5,-10 1031.5,-10"/>
<text text-anchor="start" x="1055.13" y="-15.4" font-family="Times-12" font-size="14.00"> &#160;Declarations</text>
<polygon fill="#8dd3c7" stroke="transparent" points="1144.5,-10 1144.5,-30 1164.5,-30 1164.5,-10 1144.5,-10"/>
<text text-anchor="start" x="1168.23" y="-15.4" font-family="Times-12" font-size="14.00"> &#160;Module</text>
<polygon fill="#80b1d3" stroke="transparent" points="1230.5,-10 1230.5,-30 1250.5,-30 1250.5,-10 1230.5,-10"/>
<text text-anchor="start" x="1254.28" y="-15.4" font-family="Times-12" font-size="14.00"> &#160;Bootstrap</text>
<polygon fill="#fdb462" stroke="transparent" points="1327.5,-10 1327.5,-30 1347.5,-30 1347.5,-10 1327.5,-10"/>
<text text-anchor="start" x="1351.17" y="-15.4" font-family="Times-12" font-size="14.00"> &#160;Providers</text>
<polygon fill="#fb8072" stroke="transparent" points="1423.5,-10 1423.5,-30 1443.5,-30 1443.5,-10 1423.5,-10"/>
<text text-anchor="start" x="1447.23" y="-15.4" font-family="Times-12" font-size="14.00"> &#160;Exports</text>
<g id="clust7" class="cluster">
<title>cluster_AppModule</title>
<polygon fill="none" stroke="black" stroke-dasharray="1,5" points="8,-70 8,-274 1073,-274 1073,-70 8,-70"/>
</g>
<g id="clust8" class="cluster">
<title>cluster_AppModule_declarations</title>
<polygon fill="none" stroke="black" points="224,-78 224,-130 665,-130 665,-78 224,-78"/>
</g>
<g id="clust12" class="cluster">
<title>cluster_AppModule_imports</title>
<polygon fill="none" stroke="black" points="673,-78 673,-130 1065,-130 1065,-78 673,-78"/>
</g>
<g id="clust14" class="cluster">
<title>cluster_AppModule_bootstrap</title>
<polygon fill="none" stroke="black" points="508,-214 508,-266 632,-266 632,-214 508,-214"/>
</g>
<g id="clust15" class="cluster">
<title>cluster_AppModule_providers</title>
<polygon fill="none" stroke="black" points="16,-78 16,-130 216,-130 216,-78 16,-78"/>
</g>
<g id="clust22" class="cluster">
<title>cluster_FeaturesModule</title>
<polygon fill="none" stroke="black" stroke-dasharray="1,5" points="1943,-70 1943,-198 2523,-198 2523,-70 1943,-70"/>
</g>
<g id="clust23" class="cluster">
<title>cluster_FeaturesModule_declarations</title>
<polygon fill="none" stroke="black" points="2127,-78 2127,-130 2515,-130 2515,-78 2127,-78"/>
</g>
<g id="clust26" class="cluster">
<title>cluster_FeaturesModule_imports</title>
<polygon fill="none" stroke="black" points="1951,-78 1951,-130 2119,-130 2119,-78 1951,-78"/>
</g>
<g id="clust36" class="cluster">
<title>cluster_SharedModule</title>
<polygon fill="none" stroke="black" stroke-dasharray="1,5" points="1081,-138 1081,-206 1935,-206 1935,-138 1081,-138"/>
</g>
<g id="clust37" class="cluster">
<title>cluster_SharedModule_declarations</title>
<polygon fill="none" stroke="black" points="1517,-146 1517,-198 1927,-198 1927,-146 1517,-146"/>
</g>
<g id="clust42" class="cluster">
<title>cluster_SharedModule_exports</title>
<polygon fill="none" stroke="black" points="1089,-146 1089,-198 1509,-198 1509,-146 1089,-146"/>
</g>
<!-- AboutCandidateComponent -->
<g id="node1" class="node">
<title>AboutCandidateComponent</title>
<polygon fill="#ffffb3" stroke="black" points="656.59,-122 483.41,-122 483.41,-86 656.59,-86 656.59,-122"/>
<text text-anchor="middle" x="570" y="-99.8" font-family="Times,serif" font-size="14.00">AboutCandidateComponent</text>
</g>
<!-- AppModule -->
<g id="node4" class="node">
<title>AppModule</title>
<polygon fill="#8dd3c7" stroke="black" points="611.66,-190 608.66,-194 587.66,-194 584.66,-190 528.34,-190 528.34,-154 611.66,-154 611.66,-190"/>
<text text-anchor="middle" x="570" y="-167.8" font-family="Times,serif" font-size="14.00">AppModule</text>
</g>
<!-- AboutCandidateComponent&#45;&gt;AppModule -->
<g id="edge1" class="edge">
<title>AboutCandidateComponent&#45;&gt;AppModule</title>
<path fill="none" stroke="black" d="M570,-122.22C570,-122.22 570,-143.73 570,-143.73"/>
<polygon fill="black" stroke="black" points="566.5,-143.73 570,-153.73 573.5,-143.73 566.5,-143.73"/>
</g>
<!-- AppComponent -->
<g id="node2" class="node">
<title>AppComponent</title>
<polygon fill="#ffffb3" stroke="black" points="465.94,-122 360.06,-122 360.06,-86 465.94,-86 465.94,-122"/>
<text text-anchor="middle" x="413" y="-99.8" font-family="Times,serif" font-size="14.00">AppComponent</text>
</g>
<!-- AppComponent&#45;&gt;AppModule -->
<g id="edge2" class="edge">
<title>AppComponent&#45;&gt;AppModule</title>
<path fill="none" stroke="black" d="M413,-122.02C413,-139.37 413,-163 413,-163 413,-163 518.34,-163 518.34,-163"/>
<polygon fill="black" stroke="black" points="518.34,-166.5 528.34,-163 518.34,-159.5 518.34,-166.5"/>
</g>
<!-- DocsComponent -->
<g id="node3" class="node">
<title>DocsComponent</title>
<polygon fill="#ffffb3" stroke="black" points="342.1,-122 231.9,-122 231.9,-86 342.1,-86 342.1,-122"/>
<text text-anchor="middle" x="287" y="-99.8" font-family="Times,serif" font-size="14.00">DocsComponent</text>
</g>
<!-- DocsComponent&#45;&gt;AppModule -->
<g id="edge3" class="edge">
<title>DocsComponent&#45;&gt;AppModule</title>
<path fill="none" stroke="black" d="M287,-122.22C287,-142.37 287,-172 287,-172 287,-172 518.24,-172 518.24,-172"/>
<polygon fill="black" stroke="black" points="518.24,-175.5 528.24,-172 518.24,-168.5 518.24,-175.5"/>
</g>
<!-- AppComponent  -->
<g id="node8" class="node">
<title>AppComponent </title>
<polygon fill="#80b1d3" stroke="black" points="624.44,-258 515.56,-258 515.56,-222 624.44,-222 624.44,-258"/>
<text text-anchor="middle" x="570" y="-235.8" font-family="Times,serif" font-size="14.00">AppComponent </text>
</g>
<!-- AppModule&#45;&gt;AppComponent  -->
<g id="edge7" class="edge">
<title>AppModule&#45;&gt;AppComponent </title>
<path fill="none" stroke="black" stroke-dasharray="1,5" d="M570,-190.22C570,-190.22 570,-211.73 570,-211.73"/>
<polygon fill="black" stroke="black" points="566.5,-211.73 570,-221.73 573.5,-211.73 566.5,-211.73"/>
</g>
<!-- ApiProxyModule -->
<g id="node5" class="node">
<title>ApiProxyModule</title>
<polygon fill="#8dd3c7" stroke="black" points="940.99,-122 937.99,-126 916.99,-126 913.99,-122 827.01,-122 827.01,-86 940.99,-86 940.99,-122"/>
<text text-anchor="middle" x="884" y="-99.8" font-family="Times,serif" font-size="14.00">ApiProxyModule</text>
</g>
<!-- ApiProxyModule&#45;&gt;AppModule -->
<g id="edge4" class="edge">
<title>ApiProxyModule&#45;&gt;AppModule</title>
<path fill="none" stroke="black" d="M884,-122.11C884,-141.34 884,-169 884,-169 884,-169 621.7,-169 621.7,-169"/>
<polygon fill="black" stroke="black" points="621.7,-165.5 611.7,-169 621.7,-172.5 621.7,-165.5"/>
</g>
<!-- AppRoutingModule -->
<g id="node6" class="node">
<title>AppRoutingModule</title>
<polygon fill="#8dd3c7" stroke="black" points="809.27,-122 806.27,-126 785.27,-126 782.27,-122 680.73,-122 680.73,-86 809.27,-86 809.27,-122"/>
<text text-anchor="middle" x="745" y="-99.8" font-family="Times,serif" font-size="14.00">AppRoutingModule</text>
</g>
<!-- AppRoutingModule&#45;&gt;AppModule -->
<g id="edge5" class="edge">
<title>AppRoutingModule&#45;&gt;AppModule</title>
<path fill="none" stroke="black" d="M745,-122.03C745,-139.06 745,-162 745,-162 745,-162 621.92,-162 621.92,-162"/>
<polygon fill="black" stroke="black" points="621.92,-158.5 611.92,-162 621.92,-165.5 621.92,-158.5"/>
</g>
<!-- SharedModule -->
<g id="node7" class="node">
<title>SharedModule</title>
<polygon fill="#8dd3c7" stroke="black" points="1057.42,-122 1054.42,-126 1033.42,-126 1030.42,-122 958.58,-122 958.58,-86 1057.42,-86 1057.42,-122"/>
<text text-anchor="middle" x="1008" y="-99.8" font-family="Times,serif" font-size="14.00">SharedModule</text>
</g>
<!-- SharedModule&#45;&gt;AppModule -->
<g id="edge6" class="edge">
<title>SharedModule&#45;&gt;AppModule</title>
<path fill="none" stroke="black" d="M991.6,-122.17C991.6,-143.5 991.6,-176 991.6,-176 991.6,-176 621.97,-176 621.97,-176"/>
<polygon fill="black" stroke="black" points="621.97,-172.5 611.97,-176 621.97,-179.5 621.97,-172.5"/>
</g>
<!-- FeaturesModule -->
<g id="node12" class="node">
<title>FeaturesModule</title>
<polygon fill="#8dd3c7" stroke="black" points="2180.47,-190 2177.47,-194 2156.47,-194 2153.47,-190 2073.53,-190 2073.53,-154 2180.47,-154 2180.47,-190"/>
<text text-anchor="middle" x="2127" y="-167.8" font-family="Times,serif" font-size="14.00">FeaturesModule</text>
</g>
<!-- SharedModule&#45;&gt;FeaturesModule -->
<g id="edge12" class="edge">
<title>SharedModule&#45;&gt;FeaturesModule</title>
<path fill="none" stroke="black" d="M1057.39,-92C1249.86,-92 1938.95,-92 1938.95,-92 1938.95,-92 1938.95,-172 1938.95,-172 1938.95,-172 2063.36,-172 2063.36,-172"/>
<polygon fill="black" stroke="black" points="2063.36,-175.5 2073.36,-172 2063.36,-168.5 2063.36,-175.5"/>
</g>
<!-- ChartsComponent  -->
<g id="node17" class="node">
<title>ChartsComponent </title>
<polygon fill="#fb8072" stroke="black" points="1500.88,-190 1379.12,-190 1379.12,-154 1500.88,-154 1500.88,-190"/>
<text text-anchor="middle" x="1440" y="-167.8" font-family="Times,serif" font-size="14.00">ChartsComponent </text>
</g>
<!-- SharedModule&#45;&gt;ChartsComponent  -->
<g id="edge16" class="edge">
<title>SharedModule&#45;&gt;ChartsComponent </title>
<path fill="none" stroke="black" stroke-dasharray="5,2" d="M1057.56,-112C1171.03,-112 1440,-112 1440,-112 1440,-112 1440,-144 1440,-144"/>
<polygon fill="black" stroke="black" points="1436.5,-144 1440,-154 1443.5,-144 1436.5,-144"/>
</g>
<!-- FooterComponent  -->
<g id="node18" class="node">
<title>FooterComponent </title>
<polygon fill="#fb8072" stroke="black" points="1361.88,-190 1240.12,-190 1240.12,-154 1361.88,-154 1361.88,-190"/>
<text text-anchor="middle" x="1301" y="-167.8" font-family="Times,serif" font-size="14.00">FooterComponent </text>
</g>
<!-- SharedModule&#45;&gt;FooterComponent  -->
<g id="edge17" class="edge">
<title>SharedModule&#45;&gt;FooterComponent </title>
<path fill="none" stroke="black" stroke-dasharray="5,2" d="M1057.37,-117C1140.87,-117 1301,-117 1301,-117 1301,-117 1301,-143.99 1301,-143.99"/>
<polygon fill="black" stroke="black" points="1297.5,-143.99 1301,-153.99 1304.5,-143.99 1297.5,-143.99"/>
</g>
<!-- HeaderComponent  -->
<g id="node19" class="node">
<title>HeaderComponent </title>
<polygon fill="#fb8072" stroke="black" points="1222.74,-190 1097.26,-190 1097.26,-154 1222.74,-154 1222.74,-190"/>
<text text-anchor="middle" x="1160" y="-167.8" font-family="Times,serif" font-size="14.00">HeaderComponent </text>
</g>
<!-- SharedModule&#45;&gt;HeaderComponent  -->
<g id="edge18" class="edge">
<title>SharedModule&#45;&gt;HeaderComponent </title>
<path fill="none" stroke="black" stroke-dasharray="5,2" d="M1024.4,-122.32C1024.4,-145.66 1024.4,-183 1024.4,-183 1024.4,-183 1087.36,-183 1087.36,-183"/>
<polygon fill="black" stroke="black" points="1087.36,-186.5 1097.36,-183 1087.36,-179.5 1087.36,-186.5"/>
</g>
<!-- Aq54HttpInterceptor -->
<g id="node9" class="node">
<title>Aq54HttpInterceptor</title>
<ellipse fill="#fdb462" stroke="black" cx="116" cy="-104" rx="92.04" ry="18"/>
<text text-anchor="middle" x="116" y="-99.8" font-family="Times,serif" font-size="14.00">Aq54HttpInterceptor</text>
</g>
<!-- Aq54HttpInterceptor&#45;&gt;AppModule -->
<g id="edge8" class="edge">
<title>Aq54HttpInterceptor&#45;&gt;AppModule</title>
<path fill="none" stroke="black" d="M116,-122.25C116,-145.02 116,-181 116,-181 116,-181 518.1,-181 518.1,-181"/>
<polygon fill="black" stroke="black" points="518.1,-184.5 528.1,-181 518.1,-177.5 518.1,-184.5"/>
</g>
<!-- DiferredDataChartComponent -->
<g id="node10" class="node">
<title>DiferredDataChartComponent</title>
<polygon fill="#ffffb3" stroke="black" points="2507.27,-122 2320.73,-122 2320.73,-86 2507.27,-86 2507.27,-122"/>
<text text-anchor="middle" x="2414" y="-99.8" font-family="Times,serif" font-size="14.00">DiferredDataChartComponent</text>
</g>
<!-- DiferredDataChartComponent&#45;&gt;FeaturesModule -->
<g id="edge9" class="edge">
<title>DiferredDataChartComponent&#45;&gt;FeaturesModule</title>
<path fill="none" stroke="black" d="M2414,-122.22C2414,-142.37 2414,-172 2414,-172 2414,-172 2190.65,-172 2190.65,-172"/>
<polygon fill="black" stroke="black" points="2190.65,-168.5 2180.65,-172 2190.65,-175.5 2190.65,-168.5"/>
</g>
<!-- RealTimeChartComponent -->
<g id="node11" class="node">
<title>RealTimeChartComponent</title>
<polygon fill="#ffffb3" stroke="black" points="2302.64,-122 2135.36,-122 2135.36,-86 2302.64,-86 2302.64,-122"/>
<text text-anchor="middle" x="2219" y="-99.8" font-family="Times,serif" font-size="14.00">RealTimeChartComponent</text>
</g>
<!-- RealTimeChartComponent&#45;&gt;FeaturesModule -->
<g id="edge10" class="edge">
<title>RealTimeChartComponent&#45;&gt;FeaturesModule</title>
<path fill="none" stroke="black" d="M2157.83,-122.22C2157.83,-122.22 2157.83,-143.73 2157.83,-143.73"/>
<polygon fill="black" stroke="black" points="2154.33,-143.73 2157.83,-153.73 2161.33,-143.73 2154.33,-143.73"/>
</g>
<!-- FeaturesRoutingModule -->
<g id="node13" class="node">
<title>FeaturesRoutingModule</title>
<polygon fill="#8dd3c7" stroke="black" points="2111.09,-122 2108.09,-126 2087.09,-126 2084.09,-122 1958.91,-122 1958.91,-86 2111.09,-86 2111.09,-122"/>
<text text-anchor="middle" x="2035" y="-99.8" font-family="Times,serif" font-size="14.00">FeaturesRoutingModule</text>
</g>
<!-- FeaturesRoutingModule&#45;&gt;FeaturesModule -->
<g id="edge11" class="edge">
<title>FeaturesRoutingModule&#45;&gt;FeaturesModule</title>
<path fill="none" stroke="black" d="M2092.28,-122.22C2092.28,-122.22 2092.28,-143.73 2092.28,-143.73"/>
<polygon fill="black" stroke="black" points="2088.78,-143.73 2092.28,-153.73 2095.78,-143.73 2088.78,-143.73"/>
</g>
<!-- ChartsComponent -->
<g id="node14" class="node">
<title>ChartsComponent</title>
<polygon fill="#ffffb3" stroke="black" points="1918.88,-190 1801.12,-190 1801.12,-154 1918.88,-154 1918.88,-190"/>
<text text-anchor="middle" x="1860" y="-167.8" font-family="Times,serif" font-size="14.00">ChartsComponent</text>
</g>
<!-- ChartsComponent&#45;&gt;SharedModule -->
<g id="edge13" class="edge">
<title>ChartsComponent&#45;&gt;SharedModule</title>
<path fill="none" stroke="black" d="M1860,-153.84C1860,-131.65 1860,-97 1860,-97 1860,-97 1067.49,-97 1067.49,-97"/>
<polygon fill="black" stroke="black" points="1067.49,-93.5 1057.49,-97 1067.49,-100.5 1067.49,-93.5"/>
</g>
<!-- FooterComponent -->
<g id="node15" class="node">
<title>FooterComponent</title>
<polygon fill="#ffffb3" stroke="black" points="1782.88,-190 1665.12,-190 1665.12,-154 1782.88,-154 1782.88,-190"/>
<text text-anchor="middle" x="1724" y="-167.8" font-family="Times,serif" font-size="14.00">FooterComponent</text>
</g>
<!-- FooterComponent&#45;&gt;SharedModule -->
<g id="edge14" class="edge">
<title>FooterComponent&#45;&gt;SharedModule</title>
<path fill="none" stroke="black" d="M1724,-153.97C1724,-133.23 1724,-102 1724,-102 1724,-102 1067.21,-102 1067.21,-102"/>
<polygon fill="black" stroke="black" points="1067.21,-98.5 1057.21,-102 1067.21,-105.5 1067.21,-98.5"/>
</g>
<!-- HeaderComponent -->
<g id="node16" class="node">
<title>HeaderComponent</title>
<polygon fill="#ffffb3" stroke="black" points="1646.74,-190 1525.26,-190 1525.26,-154 1646.74,-154 1646.74,-190"/>
<text text-anchor="middle" x="1586" y="-167.8" font-family="Times,serif" font-size="14.00">HeaderComponent</text>
</g>
<!-- HeaderComponent&#45;&gt;SharedModule -->
<g id="edge15" class="edge">
<title>HeaderComponent&#45;&gt;SharedModule</title>
<path fill="none" stroke="black" d="M1586,-153.89C1586,-134.66 1586,-107 1586,-107 1586,-107 1067.28,-107 1067.28,-107"/>
<polygon fill="black" stroke="black" points="1067.28,-103.5 1057.28,-107 1067.28,-110.5 1067.28,-103.5"/>
</g>
</g>
</svg>
